<?xml version="1.0" encoding="iso-8859-1"?>
<!-- Generator: Adobe Illustrator 19.0.0, SVG Export Plug-In . SVG Version: 6.00 Build 0)  -->
<svg version="1.1" id="Layer_1" xmlns="http://www.w3.org/2000/svg" xmlns:xlink="http://www.w3.org/1999/xlink" x="0px" y="0px"
	 viewBox="0 0 512 512" style="enable-background:new 0 0 512 512;" xml:space="preserve">
<path style="fill:#FCD5A2;" d="M256.003,0.003c37.651,0,90.674,45.629,90.674,101.926c0,56.286-53.022,101.915-90.674,101.915
	c-56.286,0-101.926-45.629-101.926-101.915C154.077,45.632,199.717,0.003,256.003,0.003z"/>
<path style="fill:#FEBB8E;" d="M256.003,0.003c56.286,0,101.926,45.629,101.926,101.926c0,56.286-45.641,101.915-101.926,101.915
	c37.651,0,68.168-45.629,68.168-101.915C324.171,45.632,293.654,0.003,256.003,0.003z"/>
<path style="fill:#804E30;" d="M407.317,388.927l-56.252,39.44v-39.44c0-82.921-41.905-150.268-93.836-151.314
	C340.24,238.265,407.317,305.759,407.317,388.927z"/>
<path style="fill:#A0613C;" d="M257.229,237.612c-0.405-0.011-0.821-0.011-1.227-0.011c-0.405,0-0.821,0-1.227,0.011
	c-0.001,0-0.002,0-0.003,0c-83.008,0.655-150.084,68.147-150.084,151.314l44.999,31.551v7.889l106.315,66.638l106.315-66.638v-39.44
	C362.318,306.006,309.16,238.659,257.229,237.612z"/>
<path style="fill:#FEAB75;" d="M256.003,159.673c-19.34,0-37.374-9.597-48.243-25.672c-2.611-3.861-1.597-9.108,2.264-11.718
	c3.863-2.611,9.109-1.597,11.718,2.264c7.725,11.426,20.534,18.247,34.261,18.247c13.727,0,26.536-6.821,34.262-18.247
	c2.609-3.861,7.855-4.875,11.719-2.264c3.862,2.611,4.875,7.858,2.264,11.718C293.377,150.077,275.343,159.673,256.003,159.673z"/>
<path style="fill:#FFBB02;" d="M512,511.997h-33.758c0-72.557-43.705-131.374-97.617-131.374
	C453.183,380.623,512,439.439,512,511.997z"/>
<path style="fill:#FFCC3D;" d="M380.626,380.623c-4.15,0-8.4,0.379-12.696,1.105C372.085,381.001,376.323,380.623,380.626,380.623
	c-67.82,0-123.635,51.387-130.635,117.35l12.757,14.024h20.26h195.233C505.248,444.146,434.537,380.623,380.626,380.623z"/>
<path style="fill:#BF7447;" d="M380.626,198.612c28.514,0,62.868,33.184,62.868,74.121c0,40.948-34.354,74.132-62.868,74.132
	c-40.937,0-74.121-33.184-74.121-74.132C306.505,231.794,339.689,198.612,380.626,198.612z"/>
<path style="fill:#A0613C;" d="M380.626,198.612c40.937,0,74.121,33.184,74.121,74.121c0,40.948-33.184,74.132-74.121,74.132
	c28.514,0,51.616-33.184,51.616-74.132C432.241,231.794,409.14,198.612,380.626,198.612z"/>
<path style="fill:#804E30;" d="M380.626,317.04c-14.831,0-28.66-7.358-36.994-19.683c-2.611-3.861-1.598-9.108,2.264-11.718
	c3.86-2.611,9.109-1.597,11.719,2.264c5.191,7.675,13.793,12.259,23.012,12.259s17.821-4.582,23.012-12.259
	c2.611-3.861,7.859-4.875,11.718-2.264c3.862,2.611,4.875,7.858,2.264,11.718C409.286,309.682,395.457,317.04,380.626,317.04z"/>
<path style="fill:#FF7A2F;" d="M131.374,380.623c-53.911,0-124.623,63.523-97.617,131.374h195.233
	C255.997,444.146,185.286,380.623,131.374,380.623z"/>
<path style="fill:#F06B22;" d="M262.749,511.997h-33.758c0-72.557-43.705-131.374-97.617-131.374
	C203.931,380.623,262.749,439.439,262.749,511.997z"/>
<path style="fill:#FF7A2F;" d="M0,511.997h33.758c0-72.557,43.705-131.374,97.617-131.374C58.817,380.623,0,439.439,0,511.997z"/>
<path style="fill:#FEAB75;" d="M131.374,198.612c28.514,0,62.868,33.184,62.868,74.121c0,40.948-34.354,74.132-62.868,74.132
	c-40.937,0-74.121-33.184-74.121-74.132C57.253,231.794,90.437,198.612,131.374,198.612z"/>
<path style="fill:#FF9B5F;" d="M131.374,198.612c40.937,0,74.121,33.184,74.121,74.121c0,40.948-33.184,74.132-74.121,74.132
	c28.514,0,51.616-33.184,51.616-74.132C182.99,231.794,159.889,198.612,131.374,198.612z"/>
<path style="fill:#FF7A2F;" d="M131.38,317.04c-14.831,0-28.66-7.358-36.994-19.683c-2.611-3.861-1.598-9.108,2.264-11.718
	c3.86-2.611,9.109-1.597,11.718,2.264c5.191,7.675,13.793,12.259,23.012,12.259c9.218,0,17.821-4.582,23.012-12.259
	c2.611-3.861,7.859-4.875,11.718-2.264c3.862,2.611,4.875,7.858,2.264,11.718C160.04,309.682,146.211,317.04,131.38,317.04z"/>
<g>
</g>
<g>
</g>
<g>
</g>
<g>
</g>
<g>
</g>
<g>
</g>
<g>
</g>
<g>
</g>
<g>
</g>
<g>
</g>
<g>
</g>
<g>
</g>
<g>
</g>
<g>
</g>
<g>
</g>
</svg>
