<?xml version="1.0" encoding="iso-8859-1"?>
<!-- Generator: Adobe Illustrator 19.0.0, SVG Export Plug-In . SVG Version: 6.00 Build 0)  -->
<svg version="1.1" id="Layer_1" xmlns="http://www.w3.org/2000/svg" xmlns:xlink="http://www.w3.org/1999/xlink" x="0px" y="0px"
	 viewBox="0 0 512 512" style="enable-background:new 0 0 512 512;" xml:space="preserve">
<path style="fill:#FFBB02;" d="M371.903,186.856v21.517c-19.43,0-46.107-17.343-74.275-17.343c-16.602,0-27.016,6.857-33.267,13.702
	H256l-48.545-94.612L371.903,186.856z"/>
<path style="fill:#FFDD77;" d="M256,110.122v94.612h-8.362c-6.25-6.845-16.663-13.702-33.267-13.702
	c-28.169,0-54.845,17.343-74.275,17.343v-21.517L256,110.122z"/>
<path style="fill:#FF9B5F;" d="M91.738,105.932c-13.569,0-24.567,11-24.567,24.567v161.209h49.135V130.499
	C116.305,116.932,105.305,105.932,91.738,105.932z"/>
<path style="fill:#FEBB8E;" d="M82.547,269.204V130.499c0-13.569-11-24.567-24.568-24.567s-24.567,11-24.567,24.567l0.137,154.887
	c0.005,5.607,2.257,14.193,5.005,19.08l97.318,157.592c2.748,4.887,4.996,13.474,4.996,19.08V512h98.255v-52.888L197.938,358.4
	L82.547,269.204z"/>
<path style="fill:#FCD5A2;" d="M239.122,397.05c0-16.821-9.731-40.314-21.624-52.208l-93.011-93.011
	c-9.594-9.594-25.15-9.594-34.744,0s-9.594,25.15,0,34.744l75.079,75.079v22.064c0,41.639,32.661,75.393,74.3,75.393L239.122,397.05
	L239.122,397.05z"/>
<path style="fill:#FF9B5F;" d="M420.262,105.932c13.569,0,24.567,11,24.567,24.567v161.209h-49.135V130.499
	C395.695,116.932,406.695,105.932,420.262,105.932z"/>
<path style="fill:#FEBB8E;" d="M429.453,269.204V130.499c0-13.569,11-24.567,24.568-24.567c13.569,0,24.567,11,24.567,24.567
	l-0.137,154.887c-0.004,5.607-2.257,14.193-5.005,19.08l-97.318,157.592c-2.748,4.887-4.996,13.474-4.996,19.08V512h-98.254v-52.888
	L314.062,358.4L429.453,269.204z"/>
<path style="fill:#FCD5A2;" d="M272.878,397.05c0-16.821,9.731-40.314,21.624-52.208l93.011-93.011
	c9.594-9.594,25.15-9.594,34.744,0c9.594,9.594,9.594,25.15,0,34.744l-75.079,75.079v22.064c0,41.639-32.661,75.393-74.3,75.393
	L272.878,397.05L272.878,397.05z"/>
<path style="fill:#FFDD77;" d="M297.628,0c28.169,0,54.845,17.343,74.275,17.343v169.513c-19.43,0-46.107-17.343-74.275-17.343
	c-33.217,0-41.628,27.404-41.628,27.404l-36.409-72.224L256,27.404C256,27.404,264.41,0,297.628,0z"/>
<path style="fill:#F9F0B5;" d="M214.372,0c-28.169,0-54.845,17.343-74.275,17.343v169.513c19.43,0,46.106-17.343,74.275-17.343
	c33.217,0,41.628,27.404,41.628,27.404V27.404C256,27.404,247.59,0,214.372,0z"/>
<g>
</g>
<g>
</g>
<g>
</g>
<g>
</g>
<g>
</g>
<g>
</g>
<g>
</g>
<g>
</g>
<g>
</g>
<g>
</g>
<g>
</g>
<g>
</g>
<g>
</g>
<g>
</g>
<g>
</g>
</svg>
