<?xml version="1.0" encoding="iso-8859-1"?>
<!-- Generator: Adobe Illustrator 19.0.0, SVG Export Plug-In . SVG Version: 6.00 Build 0)  -->
<svg version="1.1" id="Layer_1" xmlns="http://www.w3.org/2000/svg" xmlns:xlink="http://www.w3.org/1999/xlink" x="0px" y="0px"
	 viewBox="0 0 512 512" style="enable-background:new 0 0 512 512;" xml:space="preserve">
<path style="fill:#4693BD;" d="M293.089,219.339l-11.984,9.745c-7.427,1.632-15.112,2.566-22.989,2.689
	C270.685,231.323,282.545,226.889,293.089,219.339z"/>
<path style="fill:#7AB6DE;" d="M283.344,5.019h-51.313h-3.376h-6.493c-6.2,1.89-12.175,4.276-17.881,7.134
	c0,0-51.166,58.323-51.166,103.75c0,48.409,58.807,107.227,58.807,107.227c13.582,5.593,28.469,8.676,44.077,8.676
	c0.709,0,1.418-0.011,2.116-0.034c12.569-0.45,35.682-4.884,46.226-12.434l7.663-6.223c22.505-20.671,37.393-56.489,37.393-97.212
	C349.398,63.646,317.024,19.479,283.344,5.019z"/>
<path style="fill:#94C8EF;" d="M256,0l32.824,9.632c0.439-1.497,0.776-3.027,1.013-4.602C279.136,1.755,267.77,0,256,0z"/>
<path style="fill:#ADD9FF;" d="M256,0c-0.735,0-1.466,0.014-2.197,0.041c-10.986,0.205-21.608,1.92-31.64,4.989
	c0.236,1.575,0.574,3.106,1.013,4.602c4.164,14.19,17.273,24.565,32.824,24.565s28.661-10.375,32.824-24.565
	C278.776,3.432,267.669,0,256,0z"/>
<path style="fill:#FF9B5F;" d="M91.738,105.932c-13.569,0-24.567,11-24.567,24.567v161.209h49.135V130.499
	C116.305,116.932,105.305,105.932,91.738,105.932z"/>
<path style="fill:#FEBB8E;" d="M82.547,269.204V130.499c0-13.569-11-24.567-24.568-24.567s-24.567,11-24.567,24.567l0.137,154.887
	c0.005,5.607,2.257,14.193,5.005,19.08l97.318,157.592c2.748,4.887,4.996,13.474,4.996,19.08V512h98.255v-52.888L197.938,358.4
	L82.547,269.204z"/>
<path style="fill:#FCD5A2;" d="M239.122,397.05c0-16.821-9.731-40.314-21.624-52.208l-93.011-93.011
	c-9.594-9.594-25.15-9.594-34.744,0s-9.594,25.15,0,34.744l75.079,75.079v22.064c0,41.639,32.661,75.393,74.3,75.393L239.122,397.05
	L239.122,397.05z"/>
<path style="fill:#FF9B5F;" d="M420.262,105.932c13.569,0,24.567,11,24.567,24.567v161.209h-49.135V130.499
	C395.695,116.932,406.695,105.932,420.262,105.932z"/>
<path style="fill:#FEBB8E;" d="M429.453,269.204V130.499c0-13.569,11-24.567,24.568-24.567c13.569,0,24.567,11,24.567,24.567
	l-0.137,154.887c-0.004,5.607-2.257,14.193-5.005,19.08l-97.318,157.592c-2.748,4.887-4.996,13.474-4.996,19.08V512h-98.254v-52.888
	L314.062,358.4L429.453,269.204z"/>
<path style="fill:#FCD5A2;" d="M272.878,397.05c0-16.821,9.731-40.314,21.624-52.208l93.011-93.011
	c9.594-9.594,25.15-9.594,34.744,0c9.594,9.594,9.594,25.15,0,34.744l-75.079,75.079v22.064c0,41.639-32.661,75.393-74.3,75.393
	L272.878,397.05L272.878,397.05z"/>
<path style="fill:#C2D280;" d="M190.678,137.959H175.34h-11.804V97.303h11.377h12.142c1.53,2.869,4.569,4.85,8.057,4.85
	c5.03,0,9.103-4.074,9.103-9.103l0.056-67.179l0.011-13.706c-38.057,18.995-64.186,58.312-64.186,103.739
	c0,48.398,29.673,89.876,71.826,107.227v-9.407v-54.531C211.923,147.479,202.392,137.959,190.678,137.959z"/>
<path style="fill:#4693BD;" d="M371.577,107.205c0.214,2.869,0.326,5.773,0.326,8.698c0,16.98-3.646,33.106-10.206,47.644
	l-60.945,49.568c22.505-20.671,37.393-56.489,37.393-97.212c0-52.258-24.497-96.425-58.177-110.885h9.869
	c27.164,8.282,50.097,26.264,64.76,49.917L371.577,107.205z"/>
<g>
	<path style="fill:#84C688;" d="M354.585,54.947H325.88l12.04,52.258h33.657C370.17,88.12,364.139,70.33,354.585,54.947z"/>
	<path style="fill:#84C688;" d="M343.513,129.789c-1.193-2.228-3.252-3.826-5.638-4.456l-56.781,100.96v2.768
		c36.02-7.933,65.761-32.644,80.592-65.525L343.513,129.789z"/>
</g>
<g>
	<path style="fill:#C2D280;" d="M337.92,107.205h-67.134c-5.041,0-9.103-4.074-9.103-9.103v-8.507
		c-2.217-1.665-3.646-4.299-3.646-7.269c0-5.03,4.073-9.103,9.103-9.103h28.92v-9.182c0-5.019,4.085-9.092,9.103-9.092h20.716
		C332.642,70.33,336.919,88.12,337.92,107.205z"/>
	<path style="fill:#C2D280;" d="M335.501,125.007c0.81,0,1.609,0.113,2.374,0.326c-2.712,47.509-25.713,86.916-56.781,100.96
		v-40.116h-12.738c-10.375,0-18.815-9.531-18.815-21.245V134.11c0-5.03,4.073-9.103,9.103-9.103L335.501,125.007L335.501,125.007z"
		/>
</g>
<g>
</g>
<g>
</g>
<g>
</g>
<g>
</g>
<g>
</g>
<g>
</g>
<g>
</g>
<g>
</g>
<g>
</g>
<g>
</g>
<g>
</g>
<g>
</g>
<g>
</g>
<g>
</g>
<g>
</g>
</svg>
