<?xml version="1.0" encoding="iso-8859-1"?>
<!-- Generator: Adobe Illustrator 19.0.0, SVG Export Plug-In . SVG Version: 6.00 Build 0)  -->
<svg version="1.1" id="Layer_1" xmlns="http://www.w3.org/2000/svg" xmlns:xlink="http://www.w3.org/1999/xlink" x="0px" y="0px"
	 viewBox="0 0 512.001 512.001" style="enable-background:new 0 0 512.001 512.001;" xml:space="preserve">
<path style="fill:#58AB5B;" d="M376.577,0v270.847c74.793,0,135.423-60.631,135.423-135.423S451.37,0,376.577,0z"/>
<path style="fill:#84C688;" d="M376.577,0c-74.793,0-135.423,60.631-135.423,135.423s60.631,135.423,135.423,135.423
	c49.862,0,90.282-60.631,90.282-135.423S426.439,0,376.577,0z"/>
<path style="fill:#A0613C;" d="M429.802,174.845c-3.142-3.443-8.481-3.686-11.923-0.544l-32.863,29.994v-54.274
	c0-4.661-3.779-8.44-8.44-8.44s-8.44,3.779-8.44,8.44v54.273l-32.863-29.994c-3.442-3.143-8.781-2.899-11.923,0.544
	c-3.143,3.442-2.899,8.781,0.544,11.923l44.241,40.379v124.867h16.879V227.148l44.241-40.379
	C432.7,183.626,432.944,178.287,429.802,174.845z"/>
<path style="fill:#F06B22;" d="M435.01,453.566c0-29.405-27.51-60.335-51.533-78.347l26.23-42.895h-33.13V512
	C408.849,512,435.01,485.839,435.01,453.566z"/>
<path style="fill:#FF7A2F;" d="M380.027,375.218l13.115-42.895h-16.565h-16.566h-16.565l26.231,42.897
	c-24.023,18.011-51.533,48.942-51.533,78.347c0,32.273,26.162,58.434,58.433,58.434c16.136,0,29.217-26.162,29.217-58.434
	C405.794,424.161,392.04,393.231,380.027,375.218z"/>
<path style="fill:#84C688;" d="M135.424,0v270.847c74.793,0,135.423-60.631,135.423-135.423S210.217,0,135.424,0z"/>
<path style="fill:#C2D280;" d="M135.424,0C60.632,0,0.001,60.631,0.001,135.423s60.631,135.423,135.423,135.423
	c49.862,0,90.282-60.631,90.282-135.423S185.286,0,135.424,0z"/>
<path style="fill:#BF7447;" d="M188.648,174.845c-3.142-3.443-8.481-3.686-11.923-0.544l-32.863,29.994v-54.274
	c0-4.661-3.779-8.44-8.44-8.44c-4.661,0-8.44,3.779-8.44,8.44v54.273l-32.863-29.994c-3.442-3.143-8.781-2.899-11.923,0.544
	c-3.143,3.442-2.899,8.781,0.544,11.923l44.241,40.379v124.867h16.879V227.148l44.241-40.379
	C191.547,183.626,191.791,178.287,188.648,174.845z"/>
<path style="fill:#FF9B5F;" d="M193.857,453.566c0-29.405-27.51-60.335-51.533-78.347l26.23-42.895h-33.13V512
	C167.696,512,193.857,485.839,193.857,453.566z"/>
<path style="fill:#FEAB75;" d="M138.874,375.218l13.115-42.895h-16.565h-16.566h-16.565l26.231,42.897
	c-24.023,18.011-51.533,48.942-51.533,78.347c0,32.273,26.162,58.434,58.433,58.434c16.136,0,29.217-26.162,29.217-58.434
	C164.641,424.161,150.886,393.231,138.874,375.218z"/>
<path style="fill:#559156;" d="M256.001,0v270.847c74.793,0,135.423-60.631,135.423-135.423S330.793,0,256.001,0z"/>
<path style="fill:#58AB5B;" d="M256.001,0c-74.793,0-135.423,60.631-135.423,135.423s60.631,135.423,135.423,135.423
	c49.862,0,90.282-60.631,90.282-135.423S305.863,0,256.001,0z"/>
<path style="fill:#804E30;" d="M309.225,174.845c-3.142-3.443-8.481-3.686-11.923-0.544l-32.861,29.993v-54.273
	c0-4.661-3.779-8.44-8.44-8.44c-4.661,0-8.44,3.779-8.44,8.44v54.273l-32.863-29.994c-3.442-3.143-8.781-2.899-11.923,0.544
	c-3.143,3.442-2.899,8.781,0.544,11.923l44.242,40.38v124.867h16.879V227.148l44.241-40.379
	C312.124,183.626,312.368,178.287,309.225,174.845z"/>
<path style="fill:#FF7A2F;" d="M314.434,453.566c0-29.405-27.51-60.335-51.533-78.347l26.23-42.895h-33.13V512
	C288.272,512,314.434,485.839,314.434,453.566z"/>
<path style="fill:#FF9B5F;" d="M259.451,375.218l13.115-42.895h-16.565h-16.566h-16.565L249.1,375.22
	c-24.023,18.011-51.533,48.942-51.533,78.347c0,32.273,26.162,58.434,58.433,58.434c16.136,0,29.217-26.162,29.217-58.434
	C285.217,424.161,271.463,393.231,259.451,375.218z"/>
<g>
</g>
<g>
</g>
<g>
</g>
<g>
</g>
<g>
</g>
<g>
</g>
<g>
</g>
<g>
</g>
<g>
</g>
<g>
</g>
<g>
</g>
<g>
</g>
<g>
</g>
<g>
</g>
<g>
</g>
</svg>
