<svg id="Logo_ADJD" xmlns="http://www.w3.org/2000/svg" xmlns:xlink="http://www.w3.org/1999/xlink" viewBox="0 0 419.3 439.66"><defs><style>.cls-1,.cls-3{fill:#87dcff;}.cls-1,.cls-10,.cls-2,.cls-4{stroke:#000;}.cls-1,.cls-10,.cls-2,.cls-4,.cls-7,.cls-8,.cls-9{stroke-miterlimit:10;}.cls-2{fill:#bee86e;}.cls-4{fill:#afd755;}.cls-5{fill:url(#Ciel);}.cls-6{fill:url(#Ciel-2);}.cls-7{fill:#f5f5f7;}.cls-7,.cls-8,.cls-9{stroke:#020202;}.cls-8,.cls-9{fill:none;}.cls-9{stroke-width:0.5px;}.cls-10{font-size:130px;font-family:ForteMT, Forte;}</style><linearGradient id="Ciel" x1="404.67" y1="333.03" x2="608.42" y2="333.03" gradientUnits="userSpaceOnUse"><stop offset="0" stop-color="#cce0f4"/><stop offset="0.06" stop-color="#c3dcf2"/><stop offset="0.17" stop-color="#a9d2ee"/><stop offset="0.31" stop-color="#80c2e7"/><stop offset="0.46" stop-color="#47acde"/><stop offset="0.57" stop-color="#1e9cd7"/><stop offset="0.87" stop-color="#0075be"/><stop offset="0.99" stop-color="#005b97"/></linearGradient><linearGradient id="Ciel-2" x1="533.5" y1="313.5" x2="697.92" y2="313.5" xlink:href="#Ciel"/></defs><title>logo_adjd</title><circle class="cls-1" cx="214.84" cy="266.6" r="141.49"/><path class="cls-2" d="M566,138.88l-6.48,20.18a9.84,9.84,0,0,1-6.78,6.49l-17.16,4.71a9.88,9.88,0,0,1-2.6.35H509.37a3.29,3.29,0,0,0-3.26,2.85l-2.66,20-15.17.8a3.27,3.27,0,0,0-3.11,3.15l-.54,13.34a4.57,4.57,0,0,0,4.95,4.73l9.33-.78a8.19,8.19,0,0,0,6-3.4l8.63-12,20.8-.75a4,4,0,0,1,3.82,5.41c-4.72,12-4,11.1-4.09,12.3a3.2,3.2,0,0,0,1.13,2.84c3.51,2.79,7.4.72,7.95-2.48.34-1.15,2-5.39,4-10.62a1.85,1.85,0,0,1,3.26-.34l3,4.48a6.56,6.56,0,0,0,7.24,2.71l11-3a5.31,5.31,0,0,0,3.55-3.25l2.43-6.44a6.58,6.58,0,0,1,4.83-4.12l8.21-1.7a4.68,4.68,0,0,1,4.46,1.44c4.32,4.87,1.3,10.81-3.57,11.36l-12.7.35a4.84,4.84,0,0,0-4.72,4.73l0,1.66a1.82,1.82,0,0,0,1,1.68l7.7,3.93a5.18,5.18,0,0,1,1.93,7.53h0a5.18,5.18,0,0,1-4.29,2.27H541.88a8.05,8.05,0,0,1-3-.56L506.6,215.9a6.71,6.71,0,0,0-7,1.31L469,245.51a9.12,9.12,0,0,0-2.66,8.89l6.22,25.29a9.13,9.13,0,0,0,8.38,6.93l34.49,1.86a13.68,13.68,0,0,1,12.9,12.42l2.7,29.32a12.93,12.93,0,0,0,1.2,4.35c2.63,5.52,9.9,20.44,13.85,25.44,4.85,6.14,16.8,6.38,20.83,2.71l28-23a13.66,13.66,0,0,0,4.34-8.15l3.28-22.54,22.27-24.54a4.55,4.55,0,0,0-1.56-7.24l-.4.26a12,12,0,0,1-5.66,2c-.35,0-.71.05-1.07.05A12,12,0,0,1,606,274l-17-27a4.57,4.57,0,1,1,7.73-4.87l17,27a2.9,2.9,0,0,0,2.73,1.36,3.1,3.1,0,0,0,1.37-.49l23-12.59a4.41,4.41,0,0,0,1.33-6.61h0a4.41,4.41,0,0,0-4-1.63l-5.39.62a3.29,3.29,0,0,1-2.57-.81l-14.89-13.32a4.56,4.56,0,0,1,6.09-6.8l12.93,11.56,7.86-.9a4.52,4.52,0,0,1,4.2,1.84l1.52,2.07,9.38-1.13a6.57,6.57,0,0,1,6.56,3.4l16.29,30.12a9.13,9.13,0,0,0,5.25,4.35l5.56,2c0-.89.07-1.79.07-2.69A141.51,141.51,0,0,0,566,138.88Zm59.11,78.21a4.57,4.57,0,0,1-6.34-1.23l-9.5-14.07a4.56,4.56,0,0,1,7.56-5.11l9.5,14.07A4.56,4.56,0,0,1,625.07,217.09Z" transform="translate(-334.65 -12.89)"/><path class="cls-3" d="M595.89,374.57A141.48,141.48,0,0,1,475.37,159,141.49,141.49,0,1,0,670,353.61,140.86,140.86,0,0,1,595.89,374.57Z" transform="translate(-334.65 -12.89)"/><path class="cls-2" d="M611.1,354.23a4.57,4.57,0,0,1-3.49-7.51l12-14.26a4.57,4.57,0,1,1,7,5.88l-12,14.26A4.58,4.58,0,0,1,611.1,354.23Z" transform="translate(-334.65 -12.89)"/><path class="cls-2" d="M510.56,143.47l-4.06,12.1a4.57,4.57,0,0,0,8.66,2.9l5.91-17.61C517.51,141.58,514,142.48,510.56,143.47Z" transform="translate(-334.65 -12.89)"/><path class="cls-4" d="M431.7,357.86,435.64,322a9.12,9.12,0,0,0-2.73-7.59l-24.36-22.78A140.59,140.59,0,0,0,431.7,357.86Z" transform="translate(-334.65 -12.89)"/><path class="cls-2" d="M549.49,138a143,143,0,0,0-15.15.82l-.47,10.71a6.84,6.84,0,1,0,13,4.33l5.27-15.79C551.24,138.05,550.37,138,549.49,138Z" transform="translate(-334.65 -12.89)"/><g id="Calque_3" data-name="Calque 3"><path class="cls-5" d="M424.5,213.5s-29,132,89.2,150.36c19.62,3.05,25.44-4.77,27.16-9.9a9,9,0,0,1,6-5.68c8.94-2.63,26.09-7,26.09-1.85,0,7,14,17.07,3.55,17.07S552,358,552,358l-17.39,12.83,2.89,26.67,7-17s9.51-11,13-11S563,380,563,380l34.35,36.14,7.15,4.36s3.17,5.09,3.35,5.69c4.65,15.31-21,10.87-21,10.87s0,6.44-5.39,6.44c-6,0-11.57-1.52-10,1,1.32,2.12-8.41,6-9,6.5-4,3.5-14,0-14,0l-31.1-23.33A72.63,72.63,0,0,0,493.84,416l-3.66-1.05a55.18,55.18,0,0,1-17.61-9.46C374,320.12,406.64,226.17,424.5,213.5Z" transform="translate(-334.65 -12.89)"/><path class="cls-6" d="M670.68,206c5.61,5.79,85.12,100.75-56.8,213.27-1.81,1.43-4.31,1.73-6.65,1.73h-.66c-2.22,0-5.12-.44-6.57-2l-8-7-8.25-9-20.11-20.2-3.08-8.55-7.23-.1L550,381l-1,14.84V403s-7.73,7.19-11.59,0-3.87-28.75-3.87-28.75,7.73-18,15.46-18h23.2l3.86,3.6,23,7.47C670,365,682,225,670.68,206Z" transform="translate(-334.65 -12.89)"/><path class="cls-7" d="M557.5,437.5a55.35,55.35,0,0,0,14,6.24" transform="translate(-334.65 -12.89)"/><path class="cls-7" d="M586.5,437.5" transform="translate(-334.65 -12.89)"/><path class="cls-8" d="M550.11,443.11a14.85,14.85,0,0,0,3.57-5.88" transform="translate(-334.65 -12.89)"/><path class="cls-8" d="M557.5,433.5c3,.08,6.9-6,8.5-8.5" transform="translate(-334.65 -12.89)"/><path class="cls-8" d="M548.5,447a8.94,8.94,0,0,1-3,.26" transform="translate(-334.65 -12.89)"/><path class="cls-8" d="M573.74,419a30.62,30.62,0,0,0,8.69-3.65,6.05,6.05,0,0,0,2-1.71,2.36,2.36,0,0,0,.17-2.52" transform="translate(-334.65 -12.89)"/><line class="cls-7" x1="234.14" y1="411.23" x2="252.14" y2="424.23"/><path class="cls-8" d="M549.5,445.5c-.34-.12,3.5,4.81,11.85,5.62" transform="translate(-334.65 -12.89)"/><path class="cls-9" d="M560.49,374.24a10.6,10.6,0,0,1,6.12-3.83" transform="translate(-334.65 -12.89)"/><path class="cls-9" d="M563.55,382.78" transform="translate(-334.65 -12.89)"/><path class="cls-9" d="M553.38,374.25a25.5,25.5,0,0,0-.39-4.62" transform="translate(-334.65 -12.89)"/></g><g id="Calque_4" data-name="Calque 4"><text class="cls-10" transform="matrix(0.6, -0.53, 0.67, 0.75, 82.4, 171.15)">A</text><text class="cls-10" transform="matrix(0.72, -0.34, 0.42, 0.91, 136.02, 127.42)">.</text><text class="cls-10" transform="translate(148.38 117.33) rotate(-9.65) scale(0.8 1)">D</text><text class="cls-10" transform="translate(210.42 108.79) rotate(3) scale(0.8 1)">.</text><text class="cls-10" transform="matrix(0.77, 0.2, -0.25, 0.97, 227.06, 107.41)">J</text><text class="cls-10" transform="matrix(0.73, 0.33, -0.42, 0.91, 270.45, 119.2)">.</text><text class="cls-10" transform="matrix(0.62, 0.5, -0.63, 0.78, 286.3, 122.33)">D</text></g></svg>