<?xml version="1.0" encoding="iso-8859-1"?>
<!-- Generator: Adobe Illustrator 19.0.0, SVG Export Plug-In . SVG Version: 6.00 Build 0)  -->
<svg version="1.1" id="Layer_1" xmlns="http://www.w3.org/2000/svg" xmlns:xlink="http://www.w3.org/1999/xlink" x="0px" y="0px"
	 viewBox="0 0 512 512" style="enable-background:new 0 0 512 512;" xml:space="preserve">
<polygon style="fill:#F9F0B5;" points="255.988,37.59 70.285,150.626 441.719,150.642 "/>
<rect y="159.654" style="fill:#559156;" width="512" height="257.092"/>
<polygon style="fill:#58AB5B;" points="512,93.381 512,159.66 256,315.476 0,159.66 0,93.381 "/>
<path style="fill:#84C688;" d="M477.735,180.511L256,349.235L34.265,180.511c29.246-0.259,52.877-24.058,52.877-53.372h337.717
	C424.859,156.453,448.49,180.252,477.735,180.511z"/>
<g>
	<path style="fill:#58AB5B;" d="M478.242,180.522V329.61c-29.482,0-53.383,23.901-53.383,53.383H87.141
		c0-29.482-23.901-53.383-53.383-53.383V180.522c0.169,0,0.338,0,0.506-0.011L256,315.476l221.735-134.965
		C477.904,180.522,478.073,180.522,478.242,180.522z"/>
	<path style="fill:#58AB5B;" d="M350.163,255.072c0,1.046-0.022,2.093-0.056,3.128L256,349.235L161.893,258.2
		c-0.034-1.035-0.056-2.082-0.056-3.128c0-52.01,42.153-94.174,94.163-94.174S350.163,203.061,350.163,255.072z"/>
</g>
<path style="fill:#559156;" d="M256,315.476l94.107-57.276c-1.643,50.547-43.143,91.035-94.107,91.035s-92.464-40.487-94.107-91.035
	L256,315.476z"/>
<path style="fill:#84C688;" d="M307.991,237.801c0-15.323-12.422-27.744-27.744-27.744c-10.431,0-19.51,5.76-24.247,14.271
	c-4.737-8.51-13.816-14.271-24.247-14.271c-15.323,0-27.744,12.422-27.744,27.744c0,6.281,2.089,12.073,5.607,16.724L256,315.833
	l46.384-61.308C305.903,249.874,307.991,244.081,307.991,237.801z"/>
<g>
	<polygon style="fill:#FFCC3D;" points="230.816,333.908 256,394.246 0,474.41 0,193.418 	"/>
	<polygon style="fill:#FFCC3D;" points="512,193.418 512,474.41 256,394.246 281.184,333.908 	"/>
</g>
<polygon style="fill:#FFBB02;" points="512,474.41 0,474.41 230.816,333.908 256,349.235 281.184,333.908 "/>
<g>
</g>
<g>
</g>
<g>
</g>
<g>
</g>
<g>
</g>
<g>
</g>
<g>
</g>
<g>
</g>
<g>
</g>
<g>
</g>
<g>
</g>
<g>
</g>
<g>
</g>
<g>
</g>
<g>
</g>
</svg>
