<?xml version="1.0" encoding="iso-8859-1"?>
<!-- Generator: Adobe Illustrator 19.0.0, SVG Export Plug-In . SVG Version: 6.00 Build 0)  -->
<svg version="1.1" id="Layer_1" xmlns="http://www.w3.org/2000/svg" xmlns:xlink="http://www.w3.org/1999/xlink" x="0px" y="0px"
	 viewBox="0 0 512.001 512.001" style="enable-background:new 0 0 512.001 512.001;" xml:space="preserve">
<polygon style="fill:#94C8EF;" points="353.757,152.746 332.117,329.479 353.757,506.212 512.001,506.212 512.001,152.746 "/>
<polygon style="fill:#7AB6DE;" points="288.837,152.746 321.297,506.212 353.757,506.212 353.757,152.746 "/>
<polygon style="fill:#94C8EF;" points="170.494,13.904 19.692,58.117 19.692,99.034 321.297,99.034 321.297,58.117 "/>
<polygon style="fill:#ADD9FF;" points="170.494,54.819 19.692,99.034 19.692,506.212 116.395,506.212 170.494,484.572 
	224.594,506.212 321.297,506.212 321.297,99.034 "/>
<path style="fill:#FF455E;" d="M332.875,69.628c-0.755,0-1.523-0.106-2.286-0.33L170.494,22.359L10.401,69.299
	c-4.302,1.261-8.81-1.203-10.071-5.504c-1.261-4.301,1.203-8.81,5.504-10.071L168.21,6.115c1.492-0.436,3.075-0.436,4.567,0
	l162.376,47.608c4.301,1.262,6.765,5.77,5.504,10.071C339.621,67.333,336.385,69.628,332.875,69.628z"/>
<rect x="116.391" y="336.155" style="fill:#BF7447;" width="108.2" height="170.057"/>
<g>
	<path style="fill:#FFFFFF;" d="M384.865,453.51c-4.483,0-8.115-3.633-8.115-8.115v-36.733c0-4.482,3.632-8.115,8.115-8.115
		c4.483,0,8.115,3.633,8.115,8.115v36.733C392.98,449.877,389.348,453.51,384.865,453.51z"/>
	<path style="fill:#FFFFFF;" d="M448.432,453.51c-4.483,0-8.115-3.633-8.115-8.115v-36.733c0-4.482,3.632-8.115,8.115-8.115
		s8.115,3.633,8.115,8.115v36.733C456.547,449.877,452.915,453.51,448.432,453.51z"/>
	<path style="fill:#FFFFFF;" d="M384.865,355.96c-4.483,0-8.115-3.633-8.115-8.115v-36.733c0-4.482,3.632-8.115,8.115-8.115
		c4.483,0,8.115,3.633,8.115,8.115v36.733C392.98,352.326,389.348,355.96,384.865,355.96z"/>
	<path style="fill:#FFFFFF;" d="M448.432,355.96c-4.483,0-8.115-3.633-8.115-8.115v-36.733c0-4.482,3.632-8.115,8.115-8.115
		s8.115,3.633,8.115,8.115v36.733C456.547,352.326,452.915,355.96,448.432,355.96z"/>
	<path style="fill:#FFFFFF;" d="M384.865,258.41c-4.483,0-8.115-3.633-8.115-8.115v-36.733c0-4.482,3.632-8.115,8.115-8.115
		c4.483,0,8.115,3.633,8.115,8.115v36.733C392.98,254.777,389.348,258.41,384.865,258.41z"/>
	<path style="fill:#FFFFFF;" d="M448.432,258.41c-4.483,0-8.115-3.633-8.115-8.115v-36.733c0-4.482,3.632-8.115,8.115-8.115
		s8.115,3.633,8.115,8.115v36.733C456.547,254.777,452.915,258.41,448.432,258.41z"/>
	<path style="fill:#FFFFFF;" d="M133.386,108.494c-25.121,0-48.894,15.456-66.221,15.456v149.555
		c17.327,0,41.102-15.456,66.221-15.456c29.606,0,37.109,24.428,37.109,24.428l21.64-74.778l-21.64-74.778
		C170.494,132.921,162.992,108.494,133.386,108.494z"/>
</g>
<path style="fill:#E4F2FF;" d="M207.604,108.494c-29.606,0-37.109,24.428-37.109,24.428v149.555c0,0,7.503-24.428,37.109-24.428
	c25.121,0,48.894,15.456,66.221,15.456V123.95C256.498,123.95,232.724,108.494,207.604,108.494z"/>
<g>
</g>
<g>
</g>
<g>
</g>
<g>
</g>
<g>
</g>
<g>
</g>
<g>
</g>
<g>
</g>
<g>
</g>
<g>
</g>
<g>
</g>
<g>
</g>
<g>
</g>
<g>
</g>
<g>
</g>
</svg>
