<?xml version="1.0" encoding="iso-8859-1"?>
<!-- Generator: Adobe Illustrator 19.0.0, SVG Export Plug-In . SVG Version: 6.00 Build 0)  -->
<svg version="1.1" id="Capa_1" xmlns="http://www.w3.org/2000/svg" xmlns:xlink="http://www.w3.org/1999/xlink" x="0px" y="0px"
	 viewBox="0 0 512.011 512.011" style="enable-background:new 0 0 512.011 512.011;" xml:space="preserve">
<path style="fill:#2196F3;" d="M503.942,82.118l-112-64c-2.688-0.704-5.248-1.376-7.936-2.112h-256
	c-2.688,0.736-5.248,1.408-7.936,2.112l-112,64c-6.4,3.648-9.472,11.2-7.456,18.304l32,112c2.368,8.288,10.88,13.216,19.264,11.136
	l44.128-11.04v27.488h320v-27.488l44.128,11.008c8.352,2.08,16.896-2.816,19.264-11.136l32-112
	C513.414,93.318,510.342,85.766,503.942,82.118z"/>
<path style="fill:#ECEFF1;" d="M327.302,17.798c-2.272-1.152-4.768-1.792-7.296-1.792h-128c-2.528,0-5.024,0.64-7.296,1.792
	c-3.616,1.824-88.704,46.88-88.704,174.208v288c0,8.832,7.168,16,16,16h288c8.832,0,16-7.168,16-16v-288
	C416.006,64.678,330.918,19.622,327.302,17.798z"/>
<path style="fill:#CFD8DC;" d="M336.006,16.006c0,44.192-35.808,80-80,80s-80-35.808-80-80"/>
<path style="fill:#546E7A;" d="M256.006,112.006c-52.928,0-96-43.072-96-96h32c0,35.296,28.704,64,64,64s64-28.704,64-64h32
	C352.006,68.934,308.934,112.006,256.006,112.006z"/>
<g>
</g>
<g>
</g>
<g>
</g>
<g>
</g>
<g>
</g>
<g>
</g>
<g>
</g>
<g>
</g>
<g>
</g>
<g>
</g>
<g>
</g>
<g>
</g>
<g>
</g>
<g>
</g>
<g>
</g>
</svg>
