<?xml version="1.0" encoding="iso-8859-1"?>
<!-- Generator: Adobe Illustrator 19.0.0, SVG Export Plug-In . SVG Version: 6.00 Build 0)  -->
<svg version="1.1" id="Layer_1" xmlns="http://www.w3.org/2000/svg" xmlns:xlink="http://www.w3.org/1999/xlink" x="0px" y="0px"
	 viewBox="0 0 512 512" style="enable-background:new 0 0 512 512;" xml:space="preserve">
<path style="fill:#FF9B5F;" d="M459.034,453.675c0,13.569-11,24.567-24.567,24.567h-161.21v-49.135h161.209
	C448.035,429.107,459.034,440.106,459.034,453.675z"/>
<path style="fill:#559156;" d="M323.611,0v270.847c74.793,0,135.423-60.631,135.423-135.423S398.402,0,323.611,0z"/>
<path style="fill:#58AB5B;" d="M323.61,0c-74.793,0-135.423,60.631-135.423,135.423s60.631,135.423,135.423,135.423
	c49.862,0,90.282-60.631,90.282-135.423S373.472,0,323.61,0z"/>
<path style="fill:#804E30;" d="M376.835,174.845c-3.142-3.443-8.481-3.686-11.923-0.544l-32.863,29.994v-54.274
	c0-4.661-3.779-8.44-8.44-8.44s-8.44,3.779-8.44,8.44v54.273l-32.863-29.994c-3.442-3.143-8.781-2.899-11.923,0.544
	c-3.143,3.442-2.899,8.781,0.544,11.923l44.241,40.379v192.384h16.879V227.148l44.241-40.379
	C379.734,183.626,379.977,178.287,376.835,174.845z"/>
<path style="fill:#BF7447;" d="M323.611,371.784c-54.379,0-98.462,44.083-98.462,98.462h196.923
	C422.073,415.867,377.989,371.784,323.611,371.784z"/>
<path style="fill:#FEBB8E;" d="M295.763,462.865h138.704c13.569,0,24.567,11,24.567,24.568c0,13.569-11,24.567-24.567,24.567
	l-154.887-0.137c-5.607-0.004-14.193-2.257-19.08-5.005L102.906,409.54c-4.887-2.748-13.474-4.996-19.08-4.996H52.966V306.29h52.888
	l100.712,41.185L295.763,462.865z"/>
<path style="fill:#FCD5A2;" d="M167.916,306.29c16.821,0,40.314,9.731,52.208,21.624l93.011,93.011
	c9.594,9.594,9.594,25.15,0,34.744c-9.594,9.594-25.15,9.594-34.744,0l-75.079-75.079h-22.063c-41.639,0-75.393-32.661-75.393-74.3
	L167.916,306.29L167.916,306.29z"/>
<g>
</g>
<g>
</g>
<g>
</g>
<g>
</g>
<g>
</g>
<g>
</g>
<g>
</g>
<g>
</g>
<g>
</g>
<g>
</g>
<g>
</g>
<g>
</g>
<g>
</g>
<g>
</g>
<g>
</g>
</svg>
